<svg width="73" height="20" viewBox="0 0 414 114" fill="none" xmlns="http://www.w3.org/2000/svg"><g clip-path="url(#clip0_11448_41428)"><path d="M40.3722 92.687C34.6862 92.687 30.1372 96.996 30.1372 102.922C30.1372 108.848 34.6862 113.156 40.3722 113.156C46.0582 113.156 50.6072 108.847 50.6072 102.922C50.6072 96.997 46.0582 92.687 40.3722 92.687Z" fill="#ffffff"></path><path d="M69.9401 92.687C64.2541 92.687 59.7051 96.996 59.7051 102.922C59.7051 108.848 64.2541 113.156 69.9401 113.156C75.6261 113.156 80.1751 108.847 80.1751 102.922C80.1751 96.997 75.6261 92.687 69.9401 92.687Z" fill="#ffffff"></path><path d="M40.3722 0C34.6862 0 30.1372 4.309 30.1372 10.235C30.1372 16.161 34.6862 20.47 40.3722 20.47C46.0582 20.47 50.6072 16.161 50.6072 10.235C50.6072 4.309 46.0582 0 40.3722 0Z" fill="#ffffff"></path><path d="M69.9401 0C64.2541 0 59.7051 4.309 59.7051 10.235C59.7051 16.161 64.2541 20.47 69.9401 20.47C75.6261 20.47 80.1751 16.161 80.1751 10.235C80.1751 4.309 75.6261 0 69.9401 0Z" fill="#ffffff"></path><path d="M10.235 31.2751C4.549 31.2751 0 35.5842 0 41.5102C0 47.4362 4.549 51.7451 10.235 51.7451C15.921 51.7451 20.47 47.4362 20.47 41.5102C20.47 35.5842 15.921 31.2751 10.235 31.2751Z" fill="#ffffff"></path><path d="M10.235 61.4121C4.549 61.4121 0 65.7211 0 71.6471C0 77.5731 4.549 81.8821 10.235 81.8821C15.921 81.8821 20.47 77.5731 20.47 71.6471C20.47 65.7211 15.921 61.4121 10.235 61.4121Z" fill="#ffffff"></path><path d="M100.078 31.2751C94.3923 31.2751 89.8433 35.5842 89.8433 41.5102C89.8433 47.4362 94.3923 51.7451 100.078 51.7451C105.764 51.7451 110.313 47.4362 110.313 41.5102C110.313 35.5842 105.764 31.2751 100.078 31.2751Z" fill="#ffffff"></path><path d="M100.078 61.4121C94.3923 61.4121 89.8433 65.7211 89.8433 71.6471C89.8433 77.5731 94.3923 81.8821 100.078 81.8821C105.764 81.8821 110.313 77.5731 110.313 71.6471C110.313 65.7211 105.764 61.4121 100.078 61.4121Z" fill="#ffffff"></path><path d="M221.997 75.7282C221.418 63.5772 216.211 58.9472 209.267 57.2112C217.368 54.8962 224.312 50.2672 224.312 36.9592C224.312 23.6512 215.054 14.9712 196.537 14.9712H162.976V95.9812H176.289V62.9992H190.75C205.216 62.9992 208.688 68.2072 208.688 83.2512C208.688 89.5652 209.845 93.0882 211.003 95.9812H224.89C222.575 93.0882 221.997 84.5772 221.997 78.6222V75.7292V75.7282ZM205.216 49.6892C202.901 52.0042 199.43 52.5822 195.379 52.5822H176.284V26.5432H193.643C198.851 26.5432 201.744 27.1222 204.637 28.8582C208.109 30.5942 209.845 34.6442 209.845 39.2742C209.845 43.9042 208.109 47.3752 205.216 49.6902V49.6892Z" fill="#ffffff"></path><path d="M255.558 34.645C238.199 34.645 226.626 47.954 226.626 66.47C226.626 84.986 242.249 98.295 256.137 98.295C270.025 98.295 279.861 90.194 283.333 78.621H269.446C267.71 82.671 264.817 87.301 256.137 87.301C247.457 87.301 239.935 81.515 239.935 69.942H283.912C283.912 49.69 272.917 34.645 255.558 34.645ZM240.513 60.105C241.092 51.425 246.878 45.06 255.558 45.06C264.238 45.06 270.024 51.425 270.024 60.105H240.513Z" fill="#ffffff"></path><path d="M344.09 34.645C326.731 34.645 315.158 47.954 315.158 66.47C315.158 85.152 330.781 98.295 344.669 98.295C358.557 98.295 368.393 90.194 371.865 78.621H357.978C356.242 82.671 353.349 87.301 344.669 87.301C335.989 87.301 328.467 81.515 328.467 69.942H372.444C372.444 49.69 361.45 34.645 344.091 34.645H344.09ZM329.045 60.105C329.624 51.425 335.41 45.06 344.09 45.06C352.77 45.06 358.556 51.425 358.556 60.105H329.045Z" fill="#ffffff"></path><path d="M390.96 14.9712H377.651V95.9182H390.96V14.9712Z" fill="#ffffff"></path><path d="M413.527 14.9712H400.218V95.9182H413.527V14.9712Z" fill="#ffffff"></path><path d="M304.171 17.2821L290.841 17.2751L290.851 34.6471H282.759V45.0001H290.851V82.8191C290.851 87.5761 291.802 90.4311 294.657 93.2851C297.512 96.1391 300.369 97.0941 305.126 97.0941H315.139V85.6731H309.88C308.162 85.6731 306.96 85.3702 306.126 85.1062C305.272 84.8352 304.609 84.1571 304.4 83.2861C304.171 82.3311 304.171 81.0862 304.171 79.9032V45.0001H315.138V34.6471H304.171V17.2821Z" fill="#ffffff"></path></g><defs><clipPath id="clip0_11448_41428"><rect width="413.527" height="113.156" fill="white"></rect></clipPath></defs></svg>